<?xml version="1.0" encoding="utf-8"?>
<!-- Generator: Adobe Illustrator 22.0.1, SVG Export Plug-In . SVG Version: 6.00 Build 0)  -->
<svg version="1.1" id="Capa_1" xmlns="http://www.w3.org/2000/svg" xmlns:xlink="http://www.w3.org/1999/xlink" x="0px" y="0px"
	 viewBox="0 0 496 496" style="enable-background:new 0 0 496 496;" xml:space="preserve">
<style type="text/css">
	.st0{fill:#FF0000;}
</style>
<g>
	<g>
		<g>
			<rect x="240" y="456" class="st0" width="16" height="16"/>
			<rect x="272" y="456" class="st0" width="16" height="16"/>
			<rect x="304" y="456" class="st0" width="16" height="16"/>
			<rect x="176" y="456" class="st0" width="16" height="16"/>
			<rect x="208" y="456" class="st0" width="16" height="16"/>
			<path class="st0" d="M336,400h-40V224h16v-48h-16v-32h-16V96h-8V64h-16V0h-16v64h-16v32h-8v48h-16v32h-16v48h16v176h-40v32h-16
				v64h208v-64h-16V400z M240,80h16v16h-16V80z M232,112h32v32h-32V112z M216,160h64v16h-64V160z M200,192h96v16h-32v16h16v112h-64
				V224h32v-16h-48V192z M280,352v16h-64v-16H280z M176,416h72v-16h-32v-16h64v16h-16v16h56v16H176V416z M336,480H160v-32h176V480z"
				/>
		</g>
	</g>
</g>
</svg>
