<?xml version="1.0" encoding="utf-8"?>
<!-- Generator: Adobe Illustrator 22.0.1, SVG Export Plug-In . SVG Version: 6.00 Build 0)  -->
<svg version="1.1" id="Capa_1" xmlns="http://www.w3.org/2000/svg" xmlns:xlink="http://www.w3.org/1999/xlink" x="0px" y="0px"
	 viewBox="0 0 496 496" style="enable-background:new 0 0 496 496;" xml:space="preserve">
<style type="text/css">
	.st0{fill:#FF0000;}
</style>
<g>
	<g>
		<path class="st0" d="M467,382.5L467,382.5c9.3-3.3,16-12.1,16-22.5c0-12-8.8-21.8-20.3-23.6l-80.9-80.9c0.9-3.3,1.6-6.7,2.3-10.1
			c7.1,6.5,16.5,10.6,27,10.6c22.1,0,40-17.9,40-40s-17.9-40-40-40c-2.8,0-5.5,0.3-8.1,0.8l29.6-47.4l-49.8-5.5
			c1.7-1.2,3.4-2.5,5-4.1c15.6-15.6,15.6-41,0-56.6c-7.6-7.6-17.6-11.7-28.3-11.7c-10.7,0-20.7,4.2-28.3,11.7c-2,2-3.7,4.1-5.1,6.3
			l-12.6-54.4l-39.1,31.3c0.3-2.1,0.6-4.2,0.6-6.4c0-22.1-17.9-40-40-40s-40,17.9-40,40c0,2.8,0.3,5.5,0.8,8.1l-47.4-29.6l-5.5,49.8
			c-1.2-1.7-2.5-3.4-4.1-5c-7.6-7.6-17.6-11.7-28.3-11.7c-10.7,0-20.7,4.2-28.3,11.7c-15.6,15.6-15.6,41,0,56.6c2,2,4.1,3.7,6.3,5.1
			l-54.4,12.6l31.3,39.1c-2.1-0.3-4.2-0.6-6.4-0.6c-22.1,0-40,17.9-40,40s17.9,40,40,40c2.8,0,5.5-0.3,8.1-0.8l-29.6,47.4l49.8,5.5
			c-1.7,1.2-3.4,2.5-5,4.1c-15.6,15.6-15.6,41,0,56.6c1.2,1.2,2.5,2.1,3.8,3.1L13,496h82.6l56.9-96.7l4.1,17.6l57.3-45.8
			c2.8,5.3,7.5,9.4,13.2,11.5V448h-16v48h272v-48h-16L467,382.5L467,382.5z M459,352c4.4,0,8,3.6,8,8s-3.6,8-8,8s-8-3.6-8-8
			S454.6,352,459,352z M444.6,340.9c-1.5,1.2-2.9,2.5-4.1,4c-7.2-7-18.4-15.1-32.5-16.6l-28-52.1L444.6,340.9z M390.6,329.8
			c-10.6,3-19.2,9.4-25.1,15.1c-2.8-3.4-6.4-6-10.5-7.5v-73.8L390.6,329.8z M411,192c13.2,0,24,10.8,24,24s-10.8,24-24,24
			s-24-10.8-24-24S397.8,192,411,192z M405.5,142.5l-23.1,36.9c-3.7-14.8-9.5-28.7-17.1-41.4L405.5,142.5z M342.5,74.6
			c4.5-4.5,10.6-7,17-7c6.4,0,12.4,2.5,17,7c9.4,9.4,9.4,24.6,0,33.9c-9.4,9.4-24.6,9.4-33.9,0C333.1,99.2,333.1,83.9,342.5,74.6z
			 M303.6,43.5l9.8,42.5c-12.7-7.7-26.6-13.6-41.4-17.3L303.6,43.5z M235,16c13.2,0,24,10.8,24,24s-10.8,24-24,24s-24-10.8-24-24
			S221.8,16,235,16z M161.5,45.5l37,23.1c-14.8,3.7-28.7,9.5-41.4,17.1L161.5,45.5z M93.6,74.6c4.5-4.5,10.6-7,17-7
			c6.4,0,12.4,2.5,17,7c9.4,9.4,9.4,24.6,0,33.9c-9.4,9.4-24.6,9.4-33.9,0C84.2,99.2,84.2,83.9,93.6,74.6z M62.5,147.4l42.5-9.8
			c-7.7,12.7-13.6,26.6-17.3,41.4L62.5,147.4z M59,240c-13.2,0-24-10.8-24-24s10.8-24,24-24s24,10.8,24,24S72.2,240,59,240z
			 M64.5,289.5l23-36.9c3.6,14.7,9.3,28.6,16.9,41.3L64.5,289.5z M93.6,323.5c9.4-9.4,24.6-9.4,33.9,0c9.4,9.4,9.4,24.6,0,33.9
			c-9.1,9.1-24.9,9.1-33.9,0C84.2,348.1,84.2,332.8,93.6,323.5z M86.4,480H41l59.4-101c3.3,0.9,6.7,1.5,10.1,1.5
			c10.7,0,20.7-4.2,28.3-11.7c2-2,3.7-4.1,5.1-6.3l3.3,14.2L86.4,480z M166.4,388.5l-9.8-42.3c12.6,7.6,26.5,13.4,41.2,17.1
			L166.4,388.5z M213.2,350.1C147.7,339.6,99,283.2,99,216c0-75,61-136,136-136s136,61,136,136c0,8.8-0.9,17.5-2.6,26.1L347,220.7
			l-0.2,0.2c0.1-1.6,0.2-3.2,0.2-4.9c0-61.8-50.2-112-112-112s-112,50.2-112,112s50.2,112,112,112c1.6,0,3.2-0.1,4.9-0.2l-8.5,8.5
			C223.2,337.6,216.5,342.9,213.2,350.1z M195.9,188.2c-4.1,5.8-7,12.5-8.2,19.8h-48.3c1.7-20.5,9.8-39.1,22.4-53.9L195.9,188.2z
			 M173.1,142.8c14.8-12.6,33.5-20.7,53.9-22.4v48.3c-7.3,1.2-14,4.1-19.8,8.2L173.1,142.8z M187.7,224c1.2,7.3,4.1,14,8.2,19.8
			l-34.2,34.2c-12.6-14.8-20.7-33.5-22.4-53.9H187.7z M207.2,255.1c5.8,4.1,12.5,7,19.8,8.2v48.3c-20.5-1.7-39.1-9.8-53.9-22.4
			L207.2,255.1z M203,216c0-17.6,14.4-32,32-32s32,14.4,32,32s-14.4,32-32,32S203,233.6,203,216z M314.1,276.2l-28,52.1
			c-14.1,1.6-25.3,9.7-32.5,16.6c-1.2-1.5-2.6-2.8-4.1-4L314.1,276.2z M243,311.5v-48.2c7.3-1.2,14-4.1,19.8-8.2l24.9,24.9
			l-28.9,28.9C253.6,310.2,248.3,311,243,311.5z M339,263.7v73.8c-4.2,1.5-7.8,4.1-10.5,7.4c-5.9-5.7-14.4-12.1-25.1-15.1L339,263.7
			z M328,239.7l-29,29l-24.9-24.9c4.1-5.8,7-12.5,8.2-19.8h48.4C330.2,229.3,329.3,234.5,328,239.7z M282.3,208
			c-1.2-7.3-4.1-14-8.2-19.8l34.2-34.2c12.6,14.8,20.7,33.5,22.4,53.9H282.3z M262.8,176.9c-5.8-4.1-12.5-7-19.8-8.2v-48.3
			c20.5,1.7,39.1,9.8,53.9,22.4L262.8,176.9z M243,360c0,4.4-3.6,8-8,8s-8-3.6-8-8s3.6-8,8-8S243,355.6,243,360z M243,382.5
			c8.4-3,14.5-10.4,15.7-19.5c3.5-4.6,16-19,32.3-19c16.4,0,28.8,14.5,32.3,19c1.2,9.1,7.3,16.5,15.7,19.5V448h-96L243,382.5
			L243,382.5z M339,360c0-4.4,3.6-8,8-8s8,3.6,8,8s-3.6,8-8,8S339,364.4,339,360z M467,464v16l0,0H227v-16h192v-16h-64v-65.5
			c8.4-3,14.5-10.4,15.7-19.5c3.5-4.6,16-19,32.3-19c16.4,0,28.8,14.5,32.3,19c1.2,9.1,7.3,16.5,15.7,19.5V448h-16v16H467z"/>
	</g>
</g>
</svg>
