<?xml version="1.0" encoding="utf-8"?>
<!-- Generator: Adobe Illustrator 22.0.1, SVG Export Plug-In . SVG Version: 6.00 Build 0)  -->
<svg version="1.1" id="Capa_1" xmlns="http://www.w3.org/2000/svg" xmlns:xlink="http://www.w3.org/1999/xlink" x="0px" y="0px"
	 viewBox="0 0 497.7 497.7" style="enable-background:new 0 0 497.7 497.7;" xml:space="preserve">
<style type="text/css">
	.st0{fill:#FF0000;}
</style>
<g>
	<g>
		<g>
			<path class="st0" d="M296.8,353.7h-48c-17.6,0-32,14.4-32,32s14.4,32,32,32h8v8c0,13.2,10.8,24,24,24h24v-16h-24
				c-4.4,0-8-3.6-8-8v-56h40v-80h-16V353.7z M256.8,401.7h-8c-8.8,0-16-7.2-16-16s7.2-16,16-16h8V401.7z"/>
			<rect x="320.8" y="433.7" class="st0" width="16" height="16"/>
			<path class="st0" d="M434.5,392c-9.2-9.2-21.5-14.3-34.6-14.3h-19.7c-5.2,0-10-2-13.7-5.7c-3.6-3.6-5.7-8.5-5.7-13.6v-65.6
				c0-12.4-4.1-24.1-11.7-33.6c27.4-23.7,43.7-58.4,43.7-94.9c0-39.2-18.7-76.7-50.4-100.5L248.8,0L155,64.1
				c-31.4,23.5-50.1,61-50.1,100.3c0,36.9,15.9,71,43.7,94.9c-7.6,9.5-11.7,21.3-11.7,33.6v84.9h-39c-13.1,0-25.4,5.1-34.6,14.3
				c-9.2,9.3-14.3,21.6-14.3,34.6c0,39.2,31.9,71,71,71h257.9c39.2,0,71-31.9,71-71C448.8,413.6,443.7,401.3,434.5,392z M333.1,76.9
				c27.4,20.5,43.7,53.2,43.7,87.5c0,32.4-14.7,63.2-39.5,83.9c-6.5-4.5-13.9-7.6-21.8-8.9l-26.7-4.4v-5.4c10.1-6.8,18.4-16.1,24-27
				v15.2h16v-28.4c9.5-5.6,16-15.8,16-27.6v-16c0-41.8-26.9-77.3-64.2-90.5c-0.7-8.6-4.8-16.3-11-21.6L333.1,76.9z M184.8,289.7
				v43.8v4.2v88c0,8.8-7.2,16-16,16s-16-7.2-16-16V292.8c0-10.2,4-19.8,11.2-27c5.7-5.7,12.8-9.4,20.7-10.7l40.1-6.7v-11
				c7.5,2.7,15.6,4.2,24,4.2s16.5-1.5,24-4.2v11l28.7,4.8l-100.7,69.2v-32.8L184.8,289.7L184.8,289.7z M177.1,175.6
				c-4.9-2.7-8.3-7.9-8.3-13.9c0-5.9,3.2-11,8-13.8v21.8C176.8,171.7,177,173.7,177.1,175.6z M176.8,113.7v17.1
				c-2.5,0.6-4.8,1.6-7,2.8c5.9-38.4,39-67.9,79-67.9s73.1,29.5,79,67.9c-2.2-1.2-4.5-2.1-7-2.8v-17.1h-41.1
				c-3.6-13.8-16-24-30.9-24s-27.3,10.2-30.9,24C217.9,113.7,176.8,113.7,176.8,113.7z M234.4,50.9c2.6-5.4,8-9.2,14.4-9.2
				s11.9,3.8,14.4,9.2c-4.7-0.7-9.5-1.2-14.4-1.2S239.1,50.2,234.4,50.9z M328.8,161.7c0,6-3.4,11.2-8.3,13.9c0.2-2,0.3-3.9,0.3-5.9
				v-21.8C325.6,150.7,328.8,155.8,328.8,161.7z M262.6,113.7H235c2.8-4.8,7.9-8,13.8-8S259.8,108.9,262.6,113.7z M192.8,129.7h112
				v40c0,30.9-25.1,56-56,56s-56-25.1-56-56L192.8,129.7L192.8,129.7z M248.8,19.4l14.9,10.2c-4.5-2.4-9.5-3.8-14.9-3.8
				s-10.4,1.5-14.9,3.8L248.8,19.4z M120.8,164.4c0-34.2,16.4-66.9,43.4-87.3L228,33.6c-6.2,5.4-10.3,13-10.9,21.6
				c-37.4,13.2-64.2,48.7-64.2,90.5v16c0,11.8,6.5,22,16,27.6v28.4h16v-15.2c5.6,10.9,13.9,20.2,24,27v5.4l-26.7,4.5
				c-7.9,1.3-15.3,4.4-21.8,8.9C135.3,227.4,120.8,197.2,120.8,164.4z M377.8,481.7H119.9c-30.3,0-55-24.7-55-55
				c0-8.7,3.5-17.2,9.7-23.3c6.2-6.2,14.5-9.7,23.3-9.7h39v32c0,17.6,14.4,32,32,32s32-14.4,32-32v-83.8l121.7-83.7
				c4.1,1.9,7.8,4.4,11.1,7.6c7.2,7.2,11.2,16.8,11.2,27v65.6c0,9.4,3.7,18.3,10.3,25s15.5,10.3,25,10.3h19.7
				c8.8,0,17.1,3.4,23.3,9.7c6.1,6.1,9.7,14.6,9.7,23.3C432.8,457,408.2,481.7,377.8,481.7z"/>
			<path class="st0" d="M378.2,445l-7,7l11.3,11.3l7-7c12.5-12.4,19.3-29,19.3-46.6h-16C392.8,423,387.7,435.6,378.2,445z"/>
			<rect x="240.8" y="137.7" class="st0" width="16" height="16"/>
			<rect x="272.8" y="161.7" class="st0" width="24" height="16"/>
			<rect x="200.8" y="161.7" class="st0" width="24" height="16"/>
		</g>
	</g>
</g>
</svg>
