<?xml version="1.0" encoding="UTF-8" standalone="no"?>
<svg
   xmlns:dc="http://purl.org/dc/elements/1.1/"
   xmlns:cc="http://creativecommons.org/ns#"
   xmlns:rdf="http://www.w3.org/1999/02/22-rdf-syntax-ns#"
   xmlns:svg="http://www.w3.org/2000/svg"
   xmlns="http://www.w3.org/2000/svg"
   version="1.1"
   viewBox="0 0 510 510"
   data-name="Capa 1"
   id="Capa_1">
  <metadata
     id="metadata28">
    <rdf:RDF>
      <cc:Work
         rdf:about="">
        <dc:format>image/svg+xml</dc:format>
        <dc:type
           rdf:resource="http://purl.org/dc/dcmitype/StillImage" />
      </cc:Work>
    </rdf:RDF>
  </metadata>
  <defs
     id="defs26" />
  <title
     id="title2">대지 1</title>
  <g
     id="flights">
    <path
       id="path4"
       d="M390.17,239.14c0-2.64-2.54-4.95-5.43-4.95h-19.9l-18.1-26.4H339.5l9.05,26.4h-19.9l-5.43-6.6h-5.43l3.62,11.55-3.62,11.55h5.43l5.43-6.6h19.9l-9.05,26.4h7.24l18.1-26.4h19.9C387.63,244.09,390.17,241.78,390.17,239.14Z" />
  </g>
  <path
     id="path7"
     d="M131,317.51a24.31,24.31,0,0,1-8.49-1.41,17,17,0,0,1-6.56-4.28,19.81,19.81,0,0,1-4.24-7.13,29.81,29.81,0,0,1-1.52-10v-7.84a29.55,29.55,0,0,1,1.52-9.94,19.46,19.46,0,0,1,4.28-7.13,17.66,17.66,0,0,1,6.59-4.32,25.37,25.37,0,0,1,16.85,0,17.71,17.71,0,0,1,6.58,4.32,19.62,19.62,0,0,1,4.29,7.13,29.56,29.56,0,0,1,1.51,9.94v7.84a31.24,31.24,0,0,1-1.22,9.15,20.59,20.59,0,0,1-3.46,6.77l6.12,6L149,321l-6.48-6.41A22.29,22.29,0,0,1,131,317.51Zm0-47a15.23,15.23,0,0,0-5.47,1,10.89,10.89,0,0,0-4.32,3,14.33,14.33,0,0,0-2.81,5.33,26.73,26.73,0,0,0-1,7.81v6.26a26.73,26.73,0,0,0,1,7.81,14.33,14.33,0,0,0,2.81,5.33,10.89,10.89,0,0,0,4.32,3,15.23,15.23,0,0,0,5.47,1,17.11,17.11,0,0,0,3.42-.33,10.4,10.4,0,0,0,3.06-1.11L131,303.11l4.25-4.39,6.7,6.69a16.91,16.91,0,0,0,2-4.89,28.65,28.65,0,0,0,.68-6.63v-6.26a26.73,26.73,0,0,0-1-7.81,14.33,14.33,0,0,0-2.81-5.33,10.9,10.9,0,0,0-4.28-3A15.18,15.18,0,0,0,131,270.49Z" />
  <path
     id="path9"
     d="M161.13,277.33h7v24.48q0,5,2,7.2t6.41,2.23a10.49,10.49,0,0,0,3.53-.61,10.09,10.09,0,0,0,3.13-1.8,9,9,0,0,0,2.27-3,9.42,9.42,0,0,0,.86-4.1V277.33h7v39.39h-6.76v-5h-.08a12.15,12.15,0,0,1-4.68,4.21,15.19,15.19,0,0,1-7,1.48,16.07,16.07,0,0,1-5.36-.87,11.82,11.82,0,0,1-4.32-2.59,12.16,12.16,0,0,1-2.92-4.36,16.28,16.28,0,0,1-1.08-6.22Z" />
  <path
     id="path11"
     d="M235,313a25.71,25.71,0,0,1-6.19,3.06,27.55,27.55,0,0,1-9,1.26,21.6,21.6,0,0,1-6.81-1,14.83,14.83,0,0,1-5.47-3.24,15.09,15.09,0,0,1-3.67-5.65,22.79,22.79,0,0,1-1.33-8.21v-4.47a22.39,22.39,0,0,1,1.26-7.84,15.48,15.48,0,0,1,3.53-5.66,14.82,14.82,0,0,1,5.36-3.42,19.43,19.43,0,0,1,6.77-1.15q7.56,0,12,4.61t4.47,13v5.26h-26.5v.29q0,5.61,2.95,8.53a10.52,10.52,0,0,0,7.71,2.91,21.07,21.07,0,0,0,6.66-.93,23.57,23.57,0,0,0,5.29-2.59Zm-15.55-30.38a10.51,10.51,0,0,0-4,.75,9.72,9.72,0,0,0-3.17,2.09,9.5,9.5,0,0,0-2.08,3.24,11,11,0,0,0-.76,4.14v1h19.73v-1.3a10,10,0,0,0-2.59-7.23A9.43,9.43,0,0,0,219.45,282.59Z" />
  <path
     id="path13"
     d="M257.25,311.24a11.32,11.32,0,0,0,6.05-1.36,4.24,4.24,0,0,0,2.16-3.75v-.57a5.4,5.4,0,0,0-.36-2.09,3.37,3.37,0,0,0-1.37-1.51,11.17,11.17,0,0,0-2.74-1.19c-1.15-.36-2.66-.73-4.53-1.12a38.29,38.29,0,0,1-5.76-1.58,16,16,0,0,1-4.25-2.27,9,9,0,0,1-2.63-3.2,10.24,10.24,0,0,1-.9-4.47v-.86a9.71,9.71,0,0,1,.86-4,9.28,9.28,0,0,1,2.67-3.42,13.77,13.77,0,0,1,4.57-2.38,21.42,21.42,0,0,1,6.59-.9,30,30,0,0,1,7.52.9,19.57,19.57,0,0,1,6.45,3l-3.1,5.26a16,16,0,0,0-4.64-2.31,18.87,18.87,0,0,0-5.73-.86q-4.4,0-6.3,1.33a4,4,0,0,0-1.91,3.42V288a3.69,3.69,0,0,0,1.95,3.42,22.72,22.72,0,0,0,6.55,2,41,41,0,0,1,6.26,1.58,14.94,14.94,0,0,1,4.4,2.34,9,9,0,0,1,2.59,3.35,11.61,11.61,0,0,1,.86,4.68v.94a9.36,9.36,0,0,1-1,4.32,10.43,10.43,0,0,1-3,3.49,15.43,15.43,0,0,1-4.72,2.34,21,21,0,0,1-6.22.86,29.37,29.37,0,0,1-9-1.29,22.41,22.41,0,0,1-6.84-3.46l3.24-5.47a29.58,29.58,0,0,0,5.68,3A18,18,0,0,0,257.25,311.24Z" />
  <path
     id="path15"
     d="M283.31,283.31h-6.48v-6h6.48V267.4h7v9.93h10.36v6H290.3V305.7a9.47,9.47,0,0,0,.36,2.92,3.52,3.52,0,0,0,1,1.69,3.73,3.73,0,0,0,1.62.79,9.19,9.19,0,0,0,2,.22,15.3,15.3,0,0,0,5.18-.94L301.6,316a19,19,0,0,1-3.24.9,21.58,21.58,0,0,1-4.1.39c-3.75,0-6.51-.93-8.29-2.81s-2.66-4.8-2.66-8.78Z" />
  <path
     id="path17"
     d="M330.33,284.17a12,12,0,0,0-2.2-.68,12.56,12.56,0,0,0-2.63-.25,9.34,9.34,0,0,0-3.7.75,9,9,0,0,0-3.06,2.16,10.93,10.93,0,0,0-2.09,3.35,11.13,11.13,0,0,0-.8,4.25v23h-7V277.33h6.77v6.27h.07a13.44,13.44,0,0,1,4.5-5.15,12.55,12.55,0,0,1,7.09-1.84,17.3,17.3,0,0,1,5.12.79Z" />
  <rect
     id="rect19"
     height="39.38"
     width="6.98"
     y="277.33"
     x="339.11" />
  <path
     id="path21"
     d="M364.31,282.23a9.73,9.73,0,0,1,4.86-4.32,17.15,17.15,0,0,1,6.66-1.3q7.49,0,11.41,4.47t3.93,12.31v7a20.87,20.87,0,0,1-1.16,7.24,15,15,0,0,1-3.2,5.29,13.37,13.37,0,0,1-5,3.28,18,18,0,0,1-6.44,1.11,13.57,13.57,0,0,1-7-1.58,12.63,12.63,0,0,1-3.85-3.31v19.72h-7V277.33h6.77Zm.14,20.45a7,7,0,0,0,.76,3.06,8.27,8.27,0,0,0,2.16,2.73,12.23,12.23,0,0,0,3.28,1.95,11.1,11.1,0,0,0,4.17.75,8.42,8.42,0,0,0,6.95-3.09c1.66-2.07,2.48-5,2.48-8.72v-4.82c0-3.74-.84-6.65-2.52-8.71a8.41,8.41,0,0,0-6.91-3.1,11.13,11.13,0,0,0-4,.72,10.09,10.09,0,0,0-3.28,2,9.59,9.59,0,0,0-2.23,3.13,10,10,0,0,0-.83,4.14Z" />
</svg>
