<?xml version="1.0" encoding="utf-8"?>
<!-- Generator: Adobe Illustrator 22.0.1, SVG Export Plug-In . SVG Version: 6.00 Build 0)  -->
<svg version="1.1" id="레이어_1" xmlns="http://www.w3.org/2000/svg" xmlns:xlink="http://www.w3.org/1999/xlink" x="0px"
	 y="0px" viewBox="0 0 100 125" style="enable-background:new 0 0 100 125;" xml:space="preserve">
<style type="text/css">
	.st0{fill:#FF0000;}
</style>
<path class="st0" d="M72.3,44L72.3,44c0.6-1.2,0.9-2.5,1.2-3.8c0.5-2.9,0.5-5.9,0.3-8.8c-0.2-2.3-0.4-5.1-1.4-7.2
	c-0.6-1.4-2.1-1.7-3.4-1.8c-0.1,0-0.3,0-0.4,0c0.2-0.3,0.5-0.6,0.6-0.8c1.7-2.2,2.1-5.5,0.1-7.7c-1.5-1.7-4.7-0.9-5.6-3.1
	c-0.6-1.4-1-2.9-2-4c-1.2-1.3-2.8-2.2-4.5-2.8c-3.8-1.3-8.1-0.1-12-0.2c-0.9,0-1.5-0.1-2.7,0.2c-2.7,1.1-2.9,4.1-5,6.4
	c-2.5,2.7-4.4,5.1-4.7,8.4c-0.2,2.1,0.1,4.1-0.5,6.2c-0.5,1.9-1.6,3.6-2.3,5.4c-1.9,4.8,0,9.6-0.4,14.4c-1-0.2-1.8,0.4-2.1,1.3
	c-1.4,4-2.1,8.2-2.2,12.5c-0.1,4.1,0.2,9.1,2.8,12.5c0.1,0.1,0.1,0.2,0.2,0.3c0,0.1-0.1,0.1-0.1,0.2c-2.7,5.9-3.6,12.5,0.8,17.9
	c3.8,4.6,10.5,6.3,16.1,7.1c6.2,0.8,13.9,1,19.7-1.8c6.4-3.2,7.3-11,6.6-17.3c-0.3-2.8-0.9-5.6-1.6-8.3c-0.1-0.2-0.1-0.4-0.3-0.6
	c3.1-1.7,5.2-5,5.6-8.6C75.7,54.4,73.4,49.2,72.3,44z M38.7,15.3c3.9,0.7,7.9,1,11.8,1c2.4,0,2.4-3.7,0-3.7c-3.2,0-6.4-0.2-9.6-0.7
	c0.3-0.6,0.7-1.1,1.1-1.6c1-1.4,0.5-2.3,2.1-2.7c0.3-0.1,1.5,0.1,3-0.1c2.7-0.1,5.5-0.6,8.2-0.2c1.6,0.3,3.4,1.1,4.2,2.5
	c0.7,1.1,0.9,2.4,1.5,3.5c1.2,2.1,3.4,2.4,5.4,3c1.3,0.4,0.8,1.6,0.2,2.8c-0.4-0.2-0.8-0.2-1.3-0.1c-5.2,1.9-10.5,1.3-15.9,1.4
	c-4.1,0-8.9,0.6-12.8-1c0-0.6,0.1-1.1,0.4-1.6C37.4,16.8,38,16.1,38.7,15.3z M30.6,48.5c0.2,0,0.4,0,0.7,0c0.8-0.1,1.6-0.5,1.8-1.3
	c0.9-4.7-1-9.5,0-14.1c0.4-1.8,1.4-3.5,2.2-5.2c0.6-1.5,1-3,1.2-4.6c3.8,1.1,8,0.9,11.8,0.9c5.5-0.1,11,0.5,16.3-1
	c0,1.6,1.4,2.9,3.3,3c0.5,0,1.1,0,1.6,0c-0.2,0,0.2,1.3,0.2,1.7c0.1,0.9,0.3,1.7,0.4,2.6c0.3,2.4,0.3,4.9,0.1,7.3
	c-0.1,1.4-0.2,4.4-1.5,5.3c-0.5,0.4-0.8,0.9-0.8,1.4c-1.1-0.8-3-0.4-3,1.4c0,6.3-8.8,10.2-14.1,10.6c-4.8,0.4-13.6-0.9-15-6.5
	c-0.6-2.3-4.1-1.3-3.5,1c0.4,1.4,1,2.6,1.9,3.7c-0.7,0.2-1.3,0.8-1.2,1.7c0.1,3.8,1.5,7.4,4.3,10c0.8,0.8,1.9,1.3,2.8,1.9
	c0.1,0.1,0.2,0.1,0.3,0.2c-0.1,0-0.1,0-0.2,0c-1.7,0.3-1.6,2.5-0.4,3.3c1,0.7,1.4,1.6,0.1,2c-1.4,0.4-3.5-0.7-4.7-1.3
	c-2.9-1.6-4.7-4-5.5-7.2C28.2,59.9,28.9,53.7,30.6,48.5z M67.4,65.6c-2.5,0.9-5.2,1.4-7.8,1.7c-1.1,0.1-2.3,0.2-3.4-0.1
	c0,0,0-0.1,0.1-0.1c0.8-1.2-0.2-2.5-1.4-2.7c1.3,0,2.6-0.1,3.9-0.3c3.1-0.6,5.8-1.9,7.3-4.7c1.1-2.1-2.1-3.9-3.2-1.8
	c-1.1,2.1-2.9,2.6-5.1,3.1c-1.7,0.3-3.5,0-5.2,0.4c-1.8,0.4-3,2.4-2.5,4.2c0.3,1.2,1.2,1.9,2.3,2.4c0,0.7,0.2,1.4,0.7,2
	c0.9,1.1,2.5,1.3,3.9,1.4c3.1,0.3,6.4-0.3,9.4-1.2c0,0.1,0,0.2,0.1,0.3c1.4,5.7,3.1,12.9,0,18.3c-3.1,5.4-11.6,5-16.9,4.8
	C44,93,37.8,92,33.4,88.6c-4.8-3.7-4.5-9.4-2.4-14.5c2.7,2.2,6.2,3.6,9.6,3.1c1.7-0.3,3.1-1.8,3.5-3.4c0.3-1.1,0-2.1-0.5-2.9
	c0.7-0.5,1.1-1.1,1.1-2c0-1.6-1.3-2.6-2.4-3.5c-1.2-0.9-2.4-1.5-3.5-2.6c-1.6-1.5-2.2-3.9-2.4-6.1c4.1,2.8,10.1,3.7,14.5,3.3
	c7.2-0.6,17.3-5.9,17.4-14c0.2,0.2,0.4,0.3,0.6,0.4c0.9,3.6,2.2,7.1,2.5,10.8C71.8,60.4,70.5,64.4,67.4,65.6z"/>
<path class="st0" d="M57.6,29c-3.9,0-7.8,1.1-11.5,2.1c-0.1-0.1-0.2-0.3-0.4-0.4c-2.6-2.1-6.1-2.2-9.1-0.9c-3.2,1.4-3.6,5.1-1.7,7.7
	c1.5,2.2,4.3,3,6.8,2.8c-0.7,1.7-0.8,3.7,0.8,5c1.6,1.4,4,1.6,6,1.6c2.1,0,4.5-0.4,6.1-1.9c1.1-1.1,1.3-2.6,1.2-4.2
	c4.5,1.3,9.7-0.1,10.2-5.2C66.5,30.8,61.6,29,57.6,29z M37.9,35.6c-2.6-2.7,3.6-3.5,5.2-2.3c0.2,0.1,0.4,0.2,0.5,0.3
	c0,0.2,0.1,0.3,0.2,0.5c0,0.1,0,0.2,0,0.3C44.4,37.5,39.3,36.9,37.9,35.6z M52,42.3c-0.2,0.8-2,0.9-2.6,0.9
	c-1.1,0.1-5.4,0.4-4.4-1.5c0.5-0.9,0.1-1.7-0.5-2.3c1.8-1,3-2.6,2.9-4.9c0.6-0.2,1.3-0.4,1.9-0.5c0.1,2,1,3.7,2.5,4.9
	C52,40,52.3,41.2,52,42.3z M58.3,37.6c-2-0.1-5.7-1.3-5.3-3.9c0-0.2,0-0.4,0-0.6c0.5-0.1,0.9-0.2,1.4-0.3c2.2-0.4,6.5-1,7.7,1.4
	C63.5,36.9,60.1,37.7,58.3,37.6z"/>
</svg>
