<?xml version="1.0" encoding="utf-8"?>
<!-- Generator: Adobe Illustrator 22.0.1, SVG Export Plug-In . SVG Version: 6.00 Build 0)  -->
<svg version="1.1" id="레이어_1" xmlns="http://www.w3.org/2000/svg" xmlns:xlink="http://www.w3.org/1999/xlink" x="0px"
	 y="0px" viewBox="0 0 488 488" style="enable-background:new 0 0 488 488;" xml:space="preserve">
<style type="text/css">
	.st0{fill:#FF0000;}
</style>
<path class="st0" d="M300,340h80v16h-80V340z"/>
<path class="st0" d="M204,340h80v16h-80V340z"/>
<path class="st0" d="M108,340h80v16h-80V340z"/>
<path class="st0" d="M172,52h144v16H172V52z"/>
<path class="st0" d="M412,305.6c22.4-2.4,44.8-7.2,66.4-13.6l8.8-3.2L472.8,260H468c-2.4,0-5.6,0-8,0v-16h-16v14.4
	c-5.6-0.8-11.2-1.6-16-2.4v-20h-16v16c-8.8-2.4-16.8-6.4-24-12v-68c30.4-3.2,60.8-8.8,90.4-16l9.6-2.4L472.8,124H468v-16h-16v15.2
	c-4.8,0-10.4-0.8-16-1.6V100h-16v19.2c-5.6-0.8-10.4-2.4-16-3.2V92h-16v18.4c-6.4-2.4-12-4.8-17.6-8L337.6,20H332V4h-16v16H172V4
	h-16v16h-5.6l-32.8,82.4c-5.6,3.2-12,5.6-17.6,8V92H84v23.2c-4.8,1.6-10.4,2.4-16,4V100H52v21.6c-4.8,0.8-10.4,1.6-16,1.6V108H20v16
	h-4.8L0,153.6l10.4,2.4c30.4,6.4,60.8,12,89.6,15.2V240c-7.2,4.8-15.2,8.8-24,12v-16H60v20c-4.8,0.8-10.4,1.6-16,2.4V244H28v16
	c-2.4,0-5.6,0-8,0h-4.8L0.8,288.8l8.8,3.2c21.6,6.4,44,11.2,66.4,13.6V436H28v-16H12v48H4v16h480v-16h-8v-48h-16v16h-48V305.6z
	 M24.8,140c36,0,71.2-8.8,103.2-24.8l2.4-1.6L161.6,36h164.8l31.2,77.6l2.4,1.6C395.2,136,447.2,140,463.2,140l1.6,2.4
	c-145.6,29.6-296,29.6-440.8,0L24.8,140z M245.6,180.8c42.4,0,84.8-2.4,126.4-7.2V236H116v-62.4
	C159.2,178.4,202.4,180.8,245.6,180.8z M24.8,276c52-0.8,78.4-17.6,85.6-24h266.4c8,6.4,33.6,23.2,85.6,24l1.6,3.2
	c-23.2,5.6-94.4,20.8-220,20.8S47.2,284.8,23.2,279.2L24.8,276z M244,316c50.4,0,101.6-2.4,152-8.8V468h-16v-96h-80v96h-16v-96h-80
	v96h-16v-96h-80v96H92V307.2C142.4,313.6,193.6,316,244,316z M364,468h-48v-80h48V468z M268,468h-48v-80h48V468z M172,468h-48v-80
	h48V468z M76,468H60v-16h16V468z M28,452h16v16H28V452z M460,468h-16v-16h16V468z M428,452v16h-16v-16H428z"/>
<path class="st0" d="M204,204h80v16h-80V204z"/>
</svg>
