<?xml version="1.0" encoding="utf-8"?>
<!-- Generator: Adobe Illustrator 22.0.1, SVG Export Plug-In . SVG Version: 6.00 Build 0)  -->
<svg version="1.1" id="레이어_1" xmlns="http://www.w3.org/2000/svg" xmlns:xlink="http://www.w3.org/1999/xlink" x="0px"
	 y="0px" viewBox="0 0 496 496" style="enable-background:new 0 0 496 496;" xml:space="preserve">
<style type="text/css">
	.st0{fill:#FF0000;}
</style>
<path class="st0" d="M432,294c-5.3,0-10.7,0-16,0v58h-16v-48h-48v48h-16v-57.8c-5.3,0-10.7,0.1-16,0.1V352h-16v-57.6
	c-5.3,0-10.7,0.1-16,0.1V368h-16v-64h-48v64h-16v-72.9c-5.3,0-10.7,0.1-16,0.1V352h-16v-56.7c-5.3,0-10.7,0.1-16,0.1V352h-16v-48H96
	v48H80v-56.2c-5.3,0-10.7,0-16,0.1V352H0v144h208v-16h80v16h208V352h-64V294z M112,320h16v32h-16V320z M16,400h32v16H16V400z
	 M16,432h48v16H16V432z M48,480H16v-16h32V480z M96,480H64v-16h32V480z M96,416H64v-16h32V416z M112,432v16H80v-16H112z M144,480
	h-32v-16h32V480z M144,416h-32v-16h32V416z M160,432v16h-32v-16H160z M192,480h-32v-16h32V480z M192,448h-16v-16h16V448z M192,416
	h-32v-16h32V416z M192,384H16v-16h176V384z M240,320h16v48h-16V320z M288,464h-80v-16h80V464z M288,432h-80v-16h80V432z M288,400
	h-80v-16h80V400z M368,320h16v32h-16V320z M304,400h32v16h-32V400z M304,432h16v16h-16V432z M336,480h-32v-16h32V480z M336,432h32
	v16h-32V432z M352,416v-16h32v16H352z M384,480h-32v-16h32V480z M384,432h32v16h-32V432z M400,416v-16h32v16H400z M432,480h-32v-16
	h32V480z M480,480h-32v-16h32V480z M480,448h-48v-16h48V448z M480,416h-32v-16h32V416z M480,368v16H304v-16H480z"/>
<path class="st0" d="M112,321.6V320h16v0.8c5.3-0.2,10.7-0.4,16-0.6V304H96v18.4C101.3,322.1,106.7,321.8,112,321.6z"/>
<path class="st0" d="M64,299.9c5.3,0,10.7,0,16,0V281h80v18.7c5.3,0,10.7,0,16,0V281h16v18.6c5.3,0,10.7,0,16,0V281h80v18.3
	c5.3,0,10.7,0,16,0V281h16v18.2c5.3,0,10.7,0,16,0V281h80v18c5.3,0,10.7,0,16,0v-18h48v-16c-15.7,0-29.6-10-34.5-24.9l-2.2-6.7
	c-3.3-9.8-12.4-16.4-22.8-16.4h-6.2l-12.5-50.1c8.4-3.7,14.3-12.1,14.3-21.9c0-13.2-10.8-24-24-24s-24,10.8-24,24
	c0,4.7,1.4,9.1,3.8,12.8c-21.6,4.6-63,11.2-123.8,11.2s-102.2-6.6-123.8-11.2c2.4-3.7,3.8-8.1,3.8-12.8c0-13.2-10.8-24-24-24
	s-24,10.8-24,24c0,9.8,5.9,18.2,14.3,21.9L81.8,217h-6.2c-10.3,0-19.5,6.6-22.8,16.4l-2.2,6.7C45.6,255,31.7,265,16,265v16h48V299.9
	z M392,137c4.4,0,8,3.6,8,8c0,4.4-3.6,8-8,8c-4.4,0-8-3.6-8-8C384,140.6,387.6,137,392,137z M248,185c74.9,0,120.6-9.5,138.2-14.1
	l11.5,46.1H98.2l11.5-46.1C127.4,175.5,173.1,185,248,185z M104,137c4.4,0,8,3.6,8,8c0,4.4-3.6,8-8,8s-8-3.6-8-8
	C96,140.6,99.6,137,104,137z M53.7,265c5.3-5.5,9.5-12.2,12-19.8l2.2-6.7c1.1-3.3,4.1-5.5,7.6-5.5h344.9c3.4,0,6.5,2.2,7.6,5.5
	l2.2,6.7c2.5,7.6,6.7,14.3,12,19.8H53.7z"/>
<path class="st0" d="M272,318v-14h-48v14.3C240,318.2,256,318.1,272,318z"/>
<path class="st0" d="M397.9,319.6c0.7,0,1.4-0.1,2.1-0.1V304h-48v15.6C367.3,319.6,382.6,319.7,397.9,319.6z"/>
</svg>
